<svg viewBox="0 0 128 128" xmlns="http://www.w3.org/2000/svg">
<path fill="#F05032" d="M124.7 58.4L69.6 3.3c-4.4-4.4-11.5-4.4-15.9 0L38.3 18.8l19.5 19.5c4.7-1.6 10-0.5 13.7 3.2 3.7 3.7 4.8 9.1 3.2 13.8l18.8 18.8c4.7-1.6 10.1-0.5 13.8 3.2 5.2 5.2 5.2 13.7 0 18.9-5.2 5.2-13.7 5.2-18.9 0-3.9-3.9-4.9-9.7-2.9-14.5l-17.5-17.5v46.1c1.3 0.6 2.5 1.5 3.5 2.5 5.2 5.2 5.2 13.7 0 18.9-5.2 5.2-13.7 5.2-18.9 0-5.2-5.2-5.2-13.7 0-18.9 1.3-1.3 2.8-2.3 4.4-2.9V49.4c-1.6-0.7-3.1-1.6-4.4-2.9-4-4-4.9-9.8-2.8-14.7L29.9 12.3 3.3 38.9c-4.4 4.4-4.4 11.5 0 15.9l55.1 55.1c4.4 4.4 11.5 4.4 15.9 0l54.4-54.4c4.4-4.4 4.4-11.6 0-16.1z"/>
</svg>
